<svg width="200" height="150" viewBox="0 0 200 150" fill="none" xmlns="http://www.w3.org/2000/svg">
  <!-- Фон -->
  <rect width="200" height="150" rx="10" fill="#f8f9fa"/>
  
  <!-- Здание/офис -->
  <rect x="60" y="60" width="80" height="70" fill="#cb413b" rx="4"/>
  
  <!-- Окна -->
  <rect x="70" y="70" width="12" height="12" fill="white" rx="2"/>
  <rect x="88" y="70" width="12" height="12" fill="white" rx="2"/>
  <rect x="106" y="70" width="12" height="12" fill="white" rx="2"/>
  <rect x="124" y="70" width="12" height="12" fill="white" rx="2"/>
  
  <rect x="70" y="88" width="12" height="12" fill="white" rx="2"/>
  <rect x="88" y="88" width="12" height="12" fill="white" rx="2"/>
  <rect x="106" y="88" width="12" height="12" fill="white" rx="2"/>
  <rect x="124" y="88" width="12" height="12" fill="white" rx="2"/>
  
  <!-- Дверь -->
  <rect x="92" y="110" width="16" height="20" fill="white" rx="2"/>
  
  <!-- Рукопожатие (символ партнерства) -->
  <circle cx="100" cy="35" r="20" fill="none" stroke="#cb413b" stroke-width="3"/>
  <path d="M90 35 L95 30 L105 30 L110 35" stroke="#cb413b" stroke-width="2" fill="none"/>
  <path d="M90 35 L95 40 L105 40 L110 35" stroke="#cb413b" stroke-width="2" fill="none"/>
  
  <!-- Граница -->
  <rect width="198" height="148" x="1" y="1" rx="9" fill="none" stroke="#e9ecef" stroke-width="2"/>
</svg>